<?xml version="1.0" encoding="utf-8"?>
<!-- Generator: Adobe Illustrator 19.1.0, SVG Export Plug-In . SVG Version: 6.00 Build 0)  -->
<svg version="1.1" id="Layer_1" xmlns="http://www.w3.org/2000/svg" xmlns:xlink="http://www.w3.org/1999/xlink" x="0px" y="0px"
	 viewBox="0 0 64 64" style="enable-background:new 0 0 64 64;" xml:space="preserve">
<style type="text/css">
	.st0{fill:#FFFFFF;}
	.st1{fill:#2DE9A1;}
	.st2{fill:#231F20;}
</style>
<g>
	<circle cx="31.7" cy="32.2" r="30.5"/>
	<circle class="st0" cx="31.7" cy="32.2" r="28"/>
	<circle class="st0" cx="31.7" cy="32.2" r="21.3"/>
	<g>
		<circle class="st1" cx="31.7" cy="32.2" r="10.4"/>
		<circle cx="31.7" cy="32.2" r="4.8"/>
		<circle class="st0" cx="26.9" cy="27.4" r="4.8"/>
	</g>
	<path class="st2" d="M31.7,54.6c-12.4,0-22.5-10.1-22.5-22.5S19.3,9.7,31.7,9.7s22.5,10.1,22.5,22.5S44,54.6,31.7,54.6z M31.7,12.1
		c-11.1,0-20.1,9-20.1,20.1c0,11.1,9,20.1,20.1,20.1s20.1-9,20.1-20.1C51.7,21.1,42.7,12.1,31.7,12.1z"/>
</g>
</svg>
